<?xml version="1.0" encoding="UTF-8" standalone="no"?>
<!-- Created with Inkscape (http://www.inkscape.org/) -->

<svg
   width="130mm"
   height="130mm"
   viewBox="0 0 130 130"
   version="1.1"
   id="svg1"
   xml:space="preserve"
   sodipodi:docname="MRT-logo.svg"
   inkscape:version="1.4.2 (ebf0e940d0, 2025-05-08)"
   xmlns:inkscape="http://www.inkscape.org/namespaces/inkscape"
   xmlns:sodipodi="http://sodipodi.sourceforge.net/DTD/sodipodi-0.dtd"
   xmlns="http://www.w3.org/2000/svg"
   xmlns:svg="http://www.w3.org/2000/svg"><sodipodi:namedview
     id="namedview1"
     pagecolor="#ffffff"
     bordercolor="#000000"
     borderopacity="0.25"
     inkscape:showpageshadow="2"
     inkscape:pageopacity="0.0"
     inkscape:pagecheckerboard="0"
     inkscape:deskcolor="#d1d1d1"
     inkscape:document-units="mm"
     inkscape:zoom="0.45434767"
     inkscape:cx="332.34461"
     inkscape:cy="184.88045"
     inkscape:window-width="1322"
     inkscape:window-height="740"
     inkscape:window-x="0"
     inkscape:window-y="0"
     inkscape:window-maximized="1"
     inkscape:current-layer="layer1" /><defs
     id="defs1" /><g
     inkscape:label="Layer 1"
     inkscape:groupmode="layer"
     id="layer1"
     transform="translate(-38.714088,22.350794)"><path
       style="fill:#666666"
       d="m 68.88829,94.516264 c -1.53384,-0.756149 -1.91988,-1.754911 -1.91988,-4.967033 0,-2.104744 0.11121,-3.04233 0.43565,-3.672936 0.23961,-0.465716 2.47559,-3.108944 4.96884,-5.87384 2.49324,-2.764896 6.52966,-7.251662 8.9698,-9.970592 3.17471,-3.537418 4.75779,-5.098978 5.56575,-5.490104 1.1024,-0.533664 1.49798,-0.546457 16.72214,-0.540784 14.64529,0.0055 15.65907,0.0358 16.67968,0.499296 1.09586,0.497667 3.21539,2.757003 14.86172,15.842001 5.14588,5.781549 5.18669,5.860406 5.04367,9.746157 -0.10147,2.756819 -0.49542,3.58485 -2.09315,4.399552 -0.84985,0.43335 -3.04085,0.462254 -34.6416,0.456996 -30.37395,-0.0051 -33.81987,-0.04776 -34.59262,-0.428713 z m 52.94486,-15.307559 -5.46177,-6.217708 H 103.46592 90.56046 l -0.48509,0.638947 c -0.2668,0.351421 -2.72138,3.14939 -5.45463,6.217708 l -4.96955,5.578761 h 23.82187 23.82186 z M 61.2651,83.884729 C 59.94954,83.267949 58.74383,81.898257 56.33374,78.282664 52.81761,73.007811 49.984,66.394374 48.6043,60.242756 42.65343,33.709736 55.12083,7.2968261 79.00695,-4.1670448 c 8.03882,-3.858141 15.24953,-5.481481 24.34167,-5.480017 9.85192,0.0016 17.82538,1.87852 26.32604,6.1970814 10.12108,5.1417844 17.40522,12.0502707 23.25394,22.0547014 9.36744,16.023294 9.84349,37.661885 1.19689,54.403292 -2.48254,4.806671 -6.37199,10.097183 -8.06794,10.97419 -1.80183,0.931763 -4.73664,0.12669 -5.79042,-1.58842 -1.22804,-1.99873 -0.9418,-3.763774 1.05286,-6.492369 6.59228,-9.017887 9.78591,-18.429692 9.78591,-28.839582 0,-20.350412 -12.67987,-38.1041649 -32.023,-44.8370658 C 111.16663,-0.5307075 101.19849,-1.0720197 93.02987,0.8099756 79.77111,3.8647025 68.06677,12.884319 61.82778,24.854975 c -2.47007,4.739288 -3.9637,9.203063 -4.95175,14.798524 -0.46886,2.655245 -0.4737,12.182227 -0.008,14.816666 1.38817,7.844647 4.48319,15.146321 8.80459,20.771505 0.67003,0.872182 1.41417,1.966826 1.65364,2.432542 0.61761,1.201092 0.5654,3.378362 -0.10709,4.466489 -1.1705,1.893908 -3.91828,2.698703 -5.95456,1.744028 z M 79.89081,63.37491 c -0.387,-0.171981 -0.96557,-0.549264 -1.2857,-0.838407 -1.30204,-1.175996 -3.43825,-6.585489 -4.10067,-10.384039 -0.50464,-2.893829 -0.5027,-8.171129 0.004,-10.819273 2.06368,-10.785886 9.66276,-19.489555 20.02096,-22.931165 7.01366,-2.330355 14.80682,-1.816703 21.62932,1.425603 8.85602,4.208701 14.66594,11.689962 16.73229,21.545661 0.18306,0.873125 0.32939,3.313907 0.32518,5.423959 -0.009,4.307962 -0.50708,7.073072 -1.93461,10.73134 -1.63913,4.200517 -2.84643,5.699244 -4.90162,6.0848 -2.06467,0.387334 -4.51305,-1.081597 -5.31862,-3.190953 -0.53843,-1.409846 -0.42318,-1.983629 0.92982,-4.629355 1.79147,-3.503121 2.25871,-5.460094 2.24255,-9.392707 -0.013,-3.165635 -0.0825,-3.639777 -0.87197,-5.953125 -1.16897,-3.425179 -2.65381,-5.844147 -5.03952,-8.209921 -4.40314,-4.366363 -9.48881,-6.305763 -15.75363,-6.007583 -5.23455,0.249143 -9.59129,2.198957 -13.37871,5.987506 -3.69023,3.691328 -5.73085,8.275769 -6.0061,13.493256 -0.19911,3.774391 0.34122,6.399699 2.09308,10.169564 1.49496,3.217045 1.54382,3.969311 0.37278,5.738877 -1.16061,1.753789 -3.89055,2.586198 -5.7588,1.755962 z"
       id="path2"
       sodipodi:nodetypes="sssssssssssssccccsscccccssssssssssssssscsssccssscssscssssssssssssss" /><circle
       style="fill:#cb3c33;fill-opacity:1;stroke:none;stroke-width:5.78989;stroke-linejoin:round;stroke-dasharray:none;stroke-opacity:1"
       id="circle5"
       cx="118.70419"
       cy="11.804092"
       r="6.1076393" /><circle
       style="fill:#389826;fill-opacity:1;stroke:none;stroke-width:5.78989;stroke-linejoin:round;stroke-dasharray:none;stroke-opacity:1"
       id="circle6"
       cx="133.15376"
       cy="22.020304"
       r="6.1076393" /><circle
       style="fill:#9558b2;fill-opacity:1;stroke:none;stroke-width:5.78989;stroke-linejoin:round;stroke-dasharray:none;stroke-opacity:1"
       id="circle7"
       cx="140.90459"
       cy="37.605194"
       r="6.1076393" /></g></svg>
